<svg xmlns="http://www.w3.org/2000/svg" x="0px" y="0px" width="100" height="100" viewBox="0 0 100 100">
<path fill="#c7ede6" d="M87.215,56.71C88.35,54.555,89,52.105,89,49.5c0-6.621-4.159-12.257-10.001-14.478	C78.999,35.015,79,35.008,79,35c0-11.598-9.402-21-21-21c-9.784,0-17.981,6.701-20.313,15.757C36.211,29.272,34.638,29,33,29	c-7.692,0-14.023,5.793-14.89,13.252C12.906,43.353,9,47.969,9,53.5C9,59.851,14.149,65,20.5,65c0.177,0,0.352-0.012,0.526-0.022	C21.022,65.153,21,65.324,21,65.5C21,76.822,30.178,86,41.5,86c6.437,0,12.175-2.972,15.934-7.614C59.612,80.611,62.64,82,66,82	c4.65,0,8.674-2.65,10.666-6.518C77.718,75.817,78.837,76,80,76c6.075,0,11-4.925,11-11C91,61.689,89.53,58.727,87.215,56.71z"></path><path fill="#fdfcef" d="M66.5,38.5V39h-3v-0.5c0,0-4.242,0-5.5,0c-2.485,0-4.5-2.015-4.5-4.5 c0-2.333,1.782-4.229,4.055-4.455C57.533,29.364,57.5,29.187,57.5,29c0-2.485,2.015-4.5,4.5-4.5c1.438,0,2.703,0.686,3.527,1.736 C65.667,23.6,67.829,21.5,70.5,21.5c2.761,0,5,2.239,5,5c0,0.446-0.077,0.87-0.187,1.282c0.642-0.777,1.6-1.282,2.687-1.282 c1.781,0,3.234,1.335,3.455,3.055C81.636,29.533,81.813,29.5,82,29.5c2.485,0,4.5,2.015,4.5,4.5s-2.015,4.5-4.5,4.5s-9.5,0-9.5,0 H66.5z"></path><path fill="#472b29" d="M70.5,21c3.033,0,5.5,2.467,5.5,5.5c0,0.016,0,0.031,0,0.047C76.602,26.192,77.29,26,78,26 c1.831,0,3.411,1.261,3.858,3.005C81.905,29.002,81.952,29,82,29c2.757,0,5,2.243,5,5s-2.243,5-5,5H66.5 c-0.276,0-0.5-0.224-0.5-0.5s0.224-0.5,0.5-0.5H82c2.206,0,4-1.794,4-4s-1.794-4-4-4c-0.117,0-0.23,0.017-0.343,0.032l-0.141,0.019 c-0.021,0.003-0.041,0.004-0.062,0.004c-0.246,0-0.462-0.185-0.495-0.437C80.768,28.125,79.496,27,78,27 c-0.885,0-1.723,0.401-2.301,1.1c-0.098,0.118-0.241,0.182-0.386,0.182c-0.078,0-0.156-0.018-0.228-0.056 c-0.209-0.107-0.314-0.346-0.254-0.573C74.946,27.218,75,26.852,75,26.5c0-2.481-2.019-4.5-4.5-4.5 c-2.381,0-4.347,1.872-4.474,4.263c-0.011,0.208-0.15,0.387-0.349,0.45c-0.05,0.016-0.101,0.024-0.152,0.024 c-0.15,0-0.296-0.069-0.392-0.192C64.362,25.563,63.221,25,62,25c-2.206,0-4,1.794-4,4c0,0.117,0.017,0.23,0.032,0.343l0.019,0.141 c0.016,0.134-0.022,0.268-0.106,0.373c-0.084,0.105-0.207,0.172-0.34,0.185C55.549,30.247,54,31.949,54,34c0,2.206,1.794,4,4,4h5.5 c0.276,0,0.5,0.224,0.5,0.5S63.776,39,63.5,39H58c-2.757,0-5-2.243-5-5c0-2.397,1.689-4.413,4.003-4.877 C57.001,29.082,57,29.041,57,29c0-2.757,2.243-5,5-5c1.176,0,2.293,0.416,3.183,1.164C65.781,22.76,67.945,21,70.5,21L70.5,21z"></path><path fill="#472b29" d="M72,28c1.403,0,2.609,0.999,2.913,2.341C75.28,30.119,75.699,30,76.125,30 c1.202,0,2.198,0.897,2.353,2.068C78.681,32.022,78.874,32,79.063,32c1.529,0,2.811,1.2,2.918,2.732 C81.99,34.87,81.886,34.99,81.749,35c-0.006,0-0.012,0-0.018,0c-0.13,0-0.24-0.101-0.249-0.232 c-0.089-1.271-1.151-2.268-2.419-2.268c-0.229,0-0.47,0.042-0.738,0.127c-0.022,0.007-0.045,0.01-0.067,0.01 c-0.055,0-0.11-0.02-0.156-0.054C78.038,32.537,78,32.455,78,32.375c0-1.034-0.841-1.875-1.875-1.875 c-0.447,0-0.885,0.168-1.231,0.473c-0.047,0.041-0.106,0.063-0.165,0.063c-0.032,0-0.063-0.006-0.093-0.019 c-0.088-0.035-0.148-0.117-0.155-0.212C74.377,29.512,73.288,28.5,72,28.5c-0.208,0-0.425,0.034-0.682,0.107 c-0.023,0.007-0.047,0.01-0.07,0.01c-0.109,0-0.207-0.073-0.239-0.182c-0.038-0.133,0.039-0.271,0.172-0.309 C71.483,28.04,71.744,28,72,28L72,28z"></path><path fill="#472b29" d="M58.117,29.5c1.326,0,2.508,0.897,2.874,2.182c0.038,0.133-0.039,0.271-0.172,0.309 C60.795,31.997,60.772,32,60.75,32c-0.109,0-0.209-0.072-0.24-0.182C60.205,30.748,59.221,30,58.117,30 c-0.117,0-0.23,0.014-0.342,0.029c-0.012,0.002-0.023,0.003-0.035,0.003c-0.121,0-0.229-0.092-0.246-0.217 c-0.019-0.137,0.077-0.263,0.214-0.281C57.842,29.516,57.978,29.5,58.117,29.5L58.117,29.5z"></path><path fill="#fff" d="M30.5,77h-10c-0.276,0-0.5-0.224-0.5-0.5s0.224-0.5,0.5-0.5h10c0.276,0,0.5,0.224,0.5,0.5 S30.777,77,30.5,77z"></path><path fill="#fff" d="M33.5,77h-1c-0.276,0-0.5-0.224-0.5-0.5s0.224-0.5,0.5-0.5h1c0.276,0,0.5,0.224,0.5,0.5 S33.777,77,33.5,77z"></path><path fill="#fff" d="M38.491,79H29.5c-0.276,0-0.5-0.224-0.5-0.5s0.224-0.5,0.5-0.5h8.991c0.276,0,0.5,0.224,0.5,0.5 S38.767,79,38.491,79z"></path><path fill="#fff" d="M27.5,79h-1c-0.276,0-0.5-0.224-0.5-0.5s0.224-0.5,0.5-0.5h1c0.276,0,0.5,0.224,0.5,0.5 S27.777,79,27.5,79z"></path><path fill="#fff" d="M24.5,79h-2c-0.276,0-0.5-0.224-0.5-0.5s0.224-0.5,0.5-0.5h2c0.276,0,0.5,0.224,0.5,0.5 S24.777,79,24.5,79z"></path><path fill="#fff" d="M30.5,81h-2c-0.276,0-0.5-0.224-0.5-0.5s0.224-0.5,0.5-0.5h2c0.276,0,0.5,0.224,0.5,0.5 S30.776,81,30.5,81z"></path><path fill="#fff" d="M33.5,72c-0.177,0-0.823,0-1,0c-0.276,0-0.5,0.224-0.5,0.5c0,0.276,0.224,0.5,0.5,0.5 c0.177,0,0.823,0,1,0c0.276,0,0.5-0.224,0.5-0.5C34,72.224,33.776,72,33.5,72z"></path><path fill="#fff" d="M33.5,74c-0.177,0-4.823,0-5,0c-0.276,0-0.5,0.224-0.5,0.5c0,0.276,0.224,0.5,0.5,0.5 c0.177,0,4.823,0,5,0c0.276,0,0.5-0.224,0.5-0.5C34,74.224,33.776,74,33.5,74z"></path><path fill="#fff" d="M38.5,76c-0.177,0-2.823,0-3,0c-0.276,0-0.5,0.224-0.5,0.5c0,0.276,0.224,0.5,0.5,0.5 c0.177,0,2.823,0,3,0c0.276,0,0.5-0.224,0.5-0.5C39,76.224,38.776,76,38.5,76z"></path><g><path fill="#fff" d="M73.5,67h-10c-0.276,0-0.5-0.224-0.5-0.5s0.224-0.5,0.5-0.5h10c0.276,0,0.5,0.224,0.5,0.5 S73.776,67,73.5,67z"></path><path fill="#fff" d="M77.5,67h-2c-0.276,0-0.5-0.224-0.5-0.5s0.224-0.5,0.5-0.5h2c0.276,0,0.5,0.224,0.5,0.5 S77.776,67,77.5,67z"></path><path fill="#fff" d="M82.5,69h-10c-0.276,0-0.5-0.224-0.5-0.5s0.224-0.5,0.5-0.5h10c0.276,0,0.5,0.224,0.5,0.5 S82.777,69,82.5,69z"></path><path fill="#fff" d="M70.5,69h-1c-0.276,0-0.5-0.224-0.5-0.5s0.224-0.5,0.5-0.5h1c0.276,0,0.5,0.224,0.5,0.5 S70.776,69,70.5,69z"></path><path fill="#fff" d="M67.47,69H65.5c-0.276,0-0.5-0.224-0.5-0.5s0.224-0.5,0.5-0.5h1.97c0.276,0,0.5,0.224,0.5,0.5 S67.746,69,67.47,69z"></path><path fill="#fff" d="M76.5,65h-5c-0.276,0-0.5-0.224-0.5-0.5s0.224-0.5,0.5-0.5h5c0.276,0,0.5,0.224,0.5,0.5 S76.777,65,76.5,65z"></path><path fill="#fff" d="M73.5,71h-2c-0.276,0-0.5-0.224-0.5-0.5s0.224-0.5,0.5-0.5h2c0.276,0,0.5,0.224,0.5,0.5 S73.776,71,73.5,71z"></path></g><path fill="#1e65d6" d="M48.624,37.409l0.006,0.002c0.13-0.554,0.603-0.961,1.194-0.961h16.84	c0.021,0,0.043-0.009,0.064-0.007c-0.359-5.974-5.37-8.743-9.791-8.743h-16.84c-0.592,0-1.065,0.419-1.194,0.971l-0.006-0.002	l-7.361,33.797l0.016,0.001c-0.017,0.08-0.049,0.156-0.049,0.243c0,0.691,0.559,1.239,1.25,1.239h10.089L48.624,37.409z"></path><g><path fill="#55a7f9" d="M66.728,36.443c0.066,1.095-0.006,2.286-0.286,3.602c-1.601,7.494-7.39,11.394-14.544,11.394 c0,0-4.337,0-5.391,0c-0.651,0-0.959,0.382-1.1,0.675l-2.175,10.061l-0.381,1.786h-0.007l-1.579,7.245l0.016,0.001 c-0.017,0.08-0.049,0.156-0.049,0.243c0,0.691,0.559,1.25,1.25,1.25h9.166l0.016-0.012c0.59-0.009,1.059-0.43,1.181-0.985 l0.022-0.019l2.265-10.52c0,0,0.158-1.004,1.213-1.004s5.222,0,5.222,0c7.154,0,13.001-3.882,14.604-11.377 C77.974,40.333,71.947,36.474,66.728,36.443z"></path><path fill="#472b29" d="M51.648,73.2h-9.166c-0.894,0-1.633-0.673-1.737-1.539l-0.073-0.007l0.104-0.555l4.181-19.203 c0.298-0.618,0.849-0.958,1.55-0.958h5.391c7.329,0,12.583-4.112,14.055-10.999c0.254-1.198,0.345-2.332,0.276-3.468l-0.032-0.534 l0.534,0.003c3.277,0.02,6.35,1.42,8.221,3.746c1.898,2.36,2.489,5.541,1.709,9.199c-1.576,7.372-7.218,11.773-15.093,11.773 h-5.222c-0.568,0-0.695,0.449-0.72,0.587l-2.34,10.737c-0.212,0.648-0.769,1.11-1.433,1.191l-0.016,0.012L51.648,73.2z M41.857,70.832l-0.113,0.581c-0.012,0.451,0.324,0.788,0.738,0.788l9.175-0.013c0.342-0.005,0.624-0.243,0.701-0.593l0.058-0.183 l2.229-10.354c0.072-0.466,0.529-1.398,1.702-1.398h5.222c7.368,0,12.645-4.105,14.115-10.982c0.715-3.353,0.193-6.245-1.511-8.363 c-1.585-1.971-4.144-3.204-6.923-3.356c0.02,1.045-0.085,2.094-0.318,3.19c-1.578,7.383-7.198,11.79-15.033,11.79h-5.391 c-0.295,0-0.495,0.11-0.625,0.345L41.857,70.832z"></path></g><g><path fill="#355ca8" d="M49.824,36.45c-0.593,0-1.065,0.407-1.194,0.961l-0.006-0.002l-3.219,14.706 c0.141-0.292,0.449-0.675,1.1-0.675c1.055,0,5.294,0,5.294,0c7.154,0,13.04-3.9,14.641-11.394c0.281-1.316,0.353-2.507,0.286-3.603 c-0.02-0.002-0.043,0.006-0.063,0.006H49.824z"></path><path fill="#472b29" d="M45.405,52.615c-0.054,0-0.109-0.009-0.164-0.027c-0.239-0.083-0.379-0.332-0.325-0.58l3.219-14.707 c0.007-0.034,0.018-0.067,0.032-0.098c0.216-0.743,0.883-1.253,1.656-1.253h16.84c0.021,0,0.104-0.005,0.123-0.002 c0.239,0.029,0.424,0.225,0.438,0.466c0.075,1.232-0.022,2.455-0.296,3.737c-1.554,7.272-7.351,11.789-15.13,11.789h-5.294 c-0.314,0-0.521,0.125-0.65,0.393C45.77,52.51,45.592,52.615,45.405,52.615z M49.095,37.597l-2.926,13.371 c0.107-0.019,0.22-0.028,0.337-0.028h5.294c7.39,0,12.681-4.111,14.152-10.998c0.219-1.027,0.317-2.01,0.295-2.992H49.824 c-0.343,0-0.627,0.231-0.707,0.574C49.112,37.549,49.104,37.573,49.095,37.597z"></path></g><g><path fill="#472b29" d="M51.648,73.4h-9.166c-1.075,0-1.95-0.875-1.95-1.95c0-0.153,0.034-0.278,0.055-0.353l1.317-6.104 L32.753,65c-1.087,0-2.005-0.892-2.005-1.948c0-0.104,0.098-0.706,0.098-0.706l7.366-33.826c0.009-0.043,0.022-0.084,0.04-0.124 C38.497,27.568,39.24,27,40.097,27h16.84c4.76,0,9.757,3.007,10.434,8.764c3.094,0.186,5.951,1.579,7.737,3.799 c1.351,1.68,2.751,4.668,1.749,9.366C75.259,56.4,69.543,60.86,61.568,60.86h-5.222c-0.363,0-0.485,0.23-0.523,0.424l-2.27,10.546 c-0.013,0.062-0.035,0.121-0.063,0.176c-0.234,0.768-0.901,1.312-1.69,1.375C51.749,73.394,51.698,73.4,51.648,73.4z M42.771,63.592c0.211,0,0.412,0.096,0.544,0.26c0.133,0.165,0.185,0.38,0.14,0.587l-1.491,6.915 c-0.002,0.012-0.024,0.098-0.027,0.11C41.932,71.753,42.179,72,42.482,72h9.049c0.04-0.007,0.081-0.012,0.123-0.012 c0.286-0.004,0.461-0.222,0.508-0.436c0.011-0.051,0.028-0.1,0.05-0.146l2.237-10.389c0.079-0.513,0.589-1.556,1.897-1.556h5.222 c7.267,0,12.47-4.046,13.919-10.824c0.702-3.292,0.194-6.126-1.471-8.196c-1.617-2.01-4.273-3.235-7.132-3.296 c-0.214,0.045-0.449-0.019-0.613-0.165c-0.169-0.139-0.273-0.351-0.259-0.58c0.001-0.021,0.003-0.041,0.006-0.062 c-0.406-5.452-4.974-7.938-9.083-7.938h-16.84c-0.285,0-0.462,0.216-0.512,0.43c-0.006,0.028-0.015,0.056-0.025,0.083l-7.34,33.701 l0,0c0,0-0.063,0.356-0.073,0.471c0.001,0.259,0.284,0.515,0.606,0.515L42.771,63.592L42.771,63.592z"></path></g><g><path fill="#472b29" d="M34.316,61.699c-0.018,0-0.036-0.002-0.054-0.006c-0.135-0.029-0.22-0.163-0.191-0.297l6.806-31.249 c0.025-0.115,0.126-0.197,0.244-0.197h8.814c0.138,0,0.25,0.112,0.25,0.25s-0.112,0.25-0.25,0.25h-8.613L34.56,61.502 C34.535,61.619,34.431,61.699,34.316,61.699z M56.937,30.45h-1c-0.138,0-0.25-0.112-0.25-0.25s0.112-0.25,0.25-0.25h1 c0.138,0,0.25,0.112,0.25,0.25S57.075,30.45,56.937,30.45z M53.937,30.45h-2c-0.138,0-0.25-0.112-0.25-0.25s0.112-0.25,0.25-0.25h2 c0.138,0,0.25,0.112,0.25,0.25S54.075,30.45,53.937,30.45z"></path></g><g><path fill="#472b29" d="M61.346,57.91h-2c-0.138,0-0.25-0.112-0.25-0.25s0.112-0.25,0.25-0.25h2 c0.138,0,0.25,0.112,0.25,0.25S61.484,57.91,61.346,57.91z M57.346,57.91h-1c-0.138,0-0.25-0.112-0.25-0.25s0.112-0.25,0.25-0.25h1 c0.138,0,0.25,0.112,0.25,0.25S57.484,57.91,57.346,57.91z M63.341,57.819c-0.126,0-0.234-0.095-0.248-0.224 c-0.015-0.137,0.085-0.26,0.222-0.275c5.422-0.573,9.033-3.81,10.167-9.113c0.178-0.834,0.268-1.628,0.268-2.36 c0-1.637-0.448-3.023-1.331-4.122c-0.086-0.108-0.069-0.265,0.038-0.352c0.107-0.085,0.265-0.07,0.352,0.038 c0.957,1.19,1.441,2.682,1.441,4.436c0,0.766-0.094,1.595-0.279,2.464c-1.183,5.533-4.949,8.909-10.604,9.506 C63.359,57.819,63.35,57.819,63.341,57.819z"></path></g><g><path fill="#fdfcef" d="M31.5,59.5c0,0,1.567,0,3.5,0s3.5-1.567,3.5-3.5c0-1.781-1.335-3.234-3.055-3.455 C35.473,52.366,35.5,52.187,35.5,52c0-1.933-1.567-3.5-3.5-3.5c-1.032,0-1.95,0.455-2.59,1.165 c-0.384-1.808-1.987-3.165-3.91-3.165c-2.209,0-4,1.791-4,4c0,0.191,0.03,0.374,0.056,0.558C21.128,50.714,20.592,50.5,20,50.5 c-1.228,0-2.245,0.887-2.455,2.055C17.366,52.527,17.187,52.5,17,52.5c-1.933,0-3.5,1.567-3.5,3.5s1.567,3.5,3.5,3.5s7.5,0,7.5,0 V60h7V59.5z"></path><path fill="#472b29" d="M33.25,55C33.112,55,33,54.888,33,54.75c0-1.223,0.995-2.218,2.218-2.218 c0.034,0.009,0.737-0.001,1.244,0.136c0.133,0.036,0.212,0.173,0.176,0.306c-0.036,0.134-0.173,0.213-0.306,0.176 c-0.444-0.12-1.1-0.12-1.113-0.118c-0.948,0-1.719,0.771-1.719,1.718C33.5,54.888,33.388,55,33.25,55z"></path><circle cx="26.5" cy="59.5" r=".5" fill="#472b29"></circle><path fill="#472b29" d="M35,60h-3.5c-0.276,0-0.5-0.224-0.5-0.5s0.224-0.5,0.5-0.5H35c1.654,0,3-1.346,3-3 c0-1.496-1.125-2.768-2.618-2.959c-0.134-0.018-0.255-0.088-0.336-0.196s-0.115-0.244-0.094-0.377C34.975,52.314,35,52.16,35,52 c0-1.654-1.346-3-3-3c-0.85,0-1.638,0.355-2.219,1c-0.125,0.139-0.321,0.198-0.5,0.148c-0.182-0.049-0.321-0.195-0.36-0.379 C28.58,48.165,27.141,47,25.5,47c-1.93,0-3.5,1.57-3.5,3.5c0,0.143,0.021,0.28,0.041,0.418c0.029,0.203-0.063,0.438-0.242,0.54 c-0.179,0.102-0.396,0.118-0.556-0.01C20.878,51.155,20.449,51,20,51c-0.966,0-1.792,0.691-1.963,1.644 c-0.048,0.267-0.296,0.446-0.569,0.405C17.314,53.025,17.16,53,17,53c-1.654,0-3,1.346-3,3s1.346,3,3,3h7.5 c0.276,0,0.5,0.224,0.5,0.5S24.776,60,24.5,60H17c-2.206,0-4-1.794-4-4s1.794-4,4-4c0.059,0,0.116,0.002,0.174,0.006 C17.588,50.82,18.711,50,20,50c0.349,0,0.689,0.061,1.011,0.18C21.176,47.847,23.126,46,25.5,46c1.831,0,3.466,1.127,4.153,2.774 C30.333,48.276,31.155,48,32,48c2.206,0,4,1.794,4,4c0,0.048-0.001,0.095-0.004,0.142C37.739,52.59,39,54.169,39,56 C39,58.206,37.206,60,35,60z"></path><path fill="#472b29" d="M29.5,59c-0.159,0-0.841,0-1,0c-0.276,0-0.5,0.224-0.5,0.5c0,0.276,0.224,0.5,0.5,0.5 c0.159,0,0.841,0,1,0c0.276,0,0.5-0.224,0.5-0.5C30,59.224,29.776,59,29.5,59z"></path></g>
</svg>